<?xml version="1.0" encoding="iso-8859-1"?>
<!-- Generator: Adobe Illustrator 19.0.0, SVG Export Plug-In . SVG Version: 6.00 Build 0)  -->
<svg version="1.1" id="Layer_1" xmlns="http://www.w3.org/2000/svg" xmlns:xlink="http://www.w3.org/1999/xlink" x="0px" y="0px"
	 viewBox="0 0 503.257 503.257" style="enable-background:new 0 0 503.257 503.257;" xml:space="preserve">
<g>
	<g>
		<path d="M479.801,213.712c-3.955-41.278-14.76-98.966-43.732-139.229c-2.119-3.037-52.701-74.372-121.326-74.372h-0.035
			c-1.351-0.088-31.409-2.057-53.857,14.998c-13.162-9.207-45.736-25.582-91.807-5.341c-5.967,2.834-146.282,70.735-146.282,184.523
			c0,28.901,12.835,56.214,35.213,74.946c24.814,20.78,41.41,40.474,48.728,57.3c6.479,40.333,20.983,70.815,44.385,93.034
			c6.921,6.577,14.371,12.438,21.981,17.955v56.903c0,4.873,3.955,8.828,8.828,8.828c4.882,0,8.828-3.955,8.828-8.828v-44.694
			c0.653,0.433,1.307,0.865,1.96,1.307c0.274,0.185,0.556,0.371,0.821,0.556l5.394,3.619l3.028,2.039
			c3.346,2.269,6.612,4.679,9.869,7.089c8.572,6.347,17.355,12.782,27.507,16.887c0.309,0.124,0.583,0.283,0.892,0.397
			c1.174,0.459,2.41,0.794,3.628,1.183c0.962,0.309,1.898,0.68,2.895,0.936c0.786,0.212,1.633,0.309,2.436,0.486
			c3.778,0.821,7.715,1.368,11.953,1.368c5.041,0,9.71-0.662,14.115-1.792c0.088-0.026,0.185-0.035,0.274-0.062
			c1.404-0.362,2.737-0.856,4.078-1.324c0.812-0.274,1.651-0.486,2.445-0.794c0.309-0.115,0.591-0.274,0.892-0.397
			c10.152-4.105,18.935-10.54,27.507-16.887c3.257-2.41,6.524-4.82,9.86-7.089l5.332-3.584l3.099-2.075
			c0.115-0.079,0.238-0.168,0.353-0.247c0.971-0.644,1.942-1.289,2.904-1.942v45.021c0,4.873,3.955,8.828,8.828,8.828
			c4.882,0,8.828-3.955,8.828-8.828v-57.247c7.451-5.411,14.724-11.176,21.504-17.611c18.123-17.205,30.729-39.124,38.603-66.781
			c2.066-1.183,4.255-2.516,6.568-4.017C460.671,319.917,485.009,268.17,479.801,213.712z M358.969,406.772
			c-7.892,7.486-16.799,14.151-25.9,20.48c-4.705,3.284-9.454,6.506-14.221,9.693l-0.689,0.459l-7.795,5.235
			c-1.766,1.209-3.478,2.498-5.217,3.761c-1.739,1.254-3.496,2.472-5.226,3.752c-12.376,9.154-24.073,17.796-38.815,17.796
			s-26.439-8.642-38.815-17.796c-1.73-1.28-3.487-2.498-5.226-3.752c-1.73-1.262-3.452-2.551-5.226-3.761l-4.732-3.178l-3.637-2.445
			c-4.749-3.178-9.481-6.391-14.177-9.649c-9.145-6.374-18.114-13.065-26.05-20.595c-16.234-15.413-27.657-35.664-34.595-61.493
			c0.035-0.3,0.362-3.249,0.997-8.236c0-0.044,0.009-0.079,0.009-0.115c0.124-0.945,0.256-1.969,0.397-3.037
			c0.018-0.124,0.035-0.229,0.053-0.353c0.124-0.989,0.265-2.048,0.415-3.134c0.035-0.256,0.062-0.494,0.097-0.75
			c0.15-1.05,0.309-2.18,0.468-3.328c0.044-0.327,0.088-0.636,0.132-0.971c0.15-1.086,0.318-2.242,0.485-3.399
			c0.062-0.441,0.124-0.865,0.185-1.315c0.168-1.095,0.335-2.242,0.503-3.39c0.088-0.574,0.168-1.121,0.256-1.695
			c0.168-1.103,0.344-2.242,0.521-3.381c0.106-0.671,0.203-1.333,0.318-2.022c0.185-1.218,0.388-2.472,0.583-3.734
			c0.106-0.627,0.203-1.245,0.309-1.889c0.203-1.262,0.424-2.569,0.636-3.866c0.124-0.706,0.229-1.395,0.353-2.11
			c0.221-1.28,0.45-2.604,0.68-3.911c0.124-0.75,0.247-1.492,0.388-2.242c0.221-1.28,0.459-2.586,0.689-3.884
			c0.159-0.839,0.3-1.668,0.459-2.525c0.229-1.253,0.477-2.534,0.706-3.805c0.177-0.9,0.344-1.792,0.512-2.701
			c0.256-1.324,0.521-2.675,0.786-4.017c0.168-0.874,0.344-1.739,0.512-2.613c0.256-1.253,0.521-2.516,0.777-3.769
			c0.203-1.015,0.406-2.022,0.618-3.037c0.265-1.218,0.53-2.445,0.794-3.672c0.221-1.024,0.433-2.048,0.662-3.072
			c0.274-1.236,0.565-2.481,0.847-3.716c0.229-1.042,0.459-2.083,0.706-3.116c0.282-1.227,0.574-2.436,0.865-3.655
			c0.256-1.042,0.494-2.092,0.75-3.134c0.291-1.192,0.6-2.366,0.892-3.549c0.274-1.068,0.538-2.154,0.821-3.222
			c0.291-1.121,0.591-2.233,0.892-3.346c0.3-1.112,0.591-2.225,0.892-3.328c0.318-1.13,0.636-2.242,0.962-3.363
			c0.3-1.059,0.591-2.119,0.9-3.16c0.335-1.139,0.68-2.251,1.024-3.372c0.309-1.015,0.618-2.048,0.927-3.046
			c0.335-1.077,0.689-2.119,1.033-3.169c0.335-1.015,0.662-2.048,0.998-3.046c0.353-1.05,0.724-2.066,1.086-3.099
			c0.344-0.962,0.68-1.951,1.033-2.904c0.353-0.971,0.733-1.916,1.095-2.878c0.371-0.953,0.724-1.933,1.103-2.86
			c0.344-0.874,0.697-1.695,1.05-2.542c0.406-0.971,0.812-1.977,1.227-2.922c0.282-0.653,0.583-1.262,0.865-1.898
			c0.503-1.095,0.989-2.198,1.501-3.249c0.124-0.256,0.247-0.486,0.371-0.733c1.483-3.01,3.01-5.844,4.582-8.404
			c3.231-5.252,8.783-5.994,12.897-4.935c1.174,0.3,4.025,1.253,6.082,3.69c1.245,1.465,2.189,3.469,2.322,6.197
			c0.071,1.483,0.035,3.037-0.088,4.652c-0.035,0.503-0.15,1.059-0.212,1.571c-0.132,1.192-0.256,2.375-0.494,3.61
			c-1.792,9.322,0.291,19.05,5.738,26.686c5.305,7.45,13.18,12.261,22.175,13.55c0.212,0.035,0.459,0.053,0.671,0.088
			c0.044,0.009,0.097,0.026,0.141,0.035c1.112,0.15,2.295,0.282,3.469,0.433c0.45,0.044,0.874,0.106,1.333,0.159
			c1.183,0.132,2.436,0.247,3.681,0.371c0.75,0.071,1.474,0.15,2.233,0.212c1.015,0.088,2.083,0.15,3.125,0.221
			c1.059,0.071,2.083,0.159,3.178,0.212c0.839,0.044,1.721,0.071,2.578,0.106c1.351,0.053,2.684,0.115,4.087,0.15
			c0.671,0.018,1.377,0.018,2.066,0.026c1.642,0.026,3.284,0.044,4.988,0.035c0.468,0,0.962-0.018,1.439-0.026
			c1.96-0.026,3.937-0.062,5.985-0.132c0.3-0.009,0.618-0.035,0.927-0.044c2.233-0.097,4.502-0.203,6.841-0.362
			c0.203-0.018,0.424-0.035,0.636-0.053c2.445-0.168,4.943-0.371,7.503-0.627c0.124-0.018,0.265-0.035,0.406-0.044
			c2.639-0.265,5.323-0.574,8.077-0.927c0.141-0.018,0.291-0.044,0.433-0.062c2.754-0.371,5.553-0.777,8.413-1.236
			c0.221-0.035,0.45-0.088,0.662-0.124c2.798-0.459,5.632-0.953,8.536-1.518c0.468-0.097,0.971-0.212,1.448-0.309
			c2.657-0.53,5.341-1.086,8.086-1.704c1.015-0.229,2.066-0.512,3.099-0.75c2.242-0.539,4.484-1.059,6.788-1.66
			c2.154-0.565,4.37-1.209,6.577-1.827c1.218-0.344,2.41-0.653,3.646-1.015c6.991-2.048,14.195-4.405,21.628-7.106
			c0.565-0.203,1.13-0.309,1.695-0.441c6.391-1.563,12.906,0.936,16.552,6.303c0.53,0.777,1.006,1.607,1.404,2.507
			c4.043,9.119,8.713,22.06,11.741,37.694c0.75,3.884,1.43,7.883,1.942,12.094c0.035,0.335,0.053,0.706,0.097,1.05
			c0.397,3.443,0.662,7.009,0.847,10.646c0.953,18.458-0.98,39.256-8.422,61.378c-0.23,0.697-0.371,1.412-0.433,2.119
			c-0.018,0.309,0.026,0.609,0.035,0.927c0.018,0.397-0.009,0.803,0.053,1.201c0.062,0.318,0.185,0.627,0.274,0.936
			c0.106,0.371,0.177,0.759,0.327,1.112c0.124,0.282,0.318,0.538,0.477,0.821c0.185,0.344,0.344,0.706,0.591,1.024
			c0,0,0.009,0.009,0.018,0.018c0.009,0.009,0.018,0.026,0.026,0.035c0.803,1.05,1.827,1.854,2.966,2.436
			c0.053,0.035,0.106,0.079,0.159,0.106c1.103,0.539,2.313,0.803,3.584,0.839c0.106,0.009,0.194,0.071,0.291,0.071
			c0.132,0,0.274,0,0.406-0.009c0.026,0,0.097-0.009,0.124-0.009h0.026c0.044,0,0.185-0.018,0.247-0.026
			c0.574-0.044,1.474-0.132,2.825-0.406C381.391,379.786,371.698,394.678,358.969,406.772z"/>
	</g>
</g>
<g>
</g>
<g>
</g>
<g>
</g>
<g>
</g>
<g>
</g>
<g>
</g>
<g>
</g>
<g>
</g>
<g>
</g>
<g>
</g>
<g>
</g>
<g>
</g>
<g>
</g>
<g>
</g>
<g>
</g>
</svg>
